<?xml version="1.0" encoding="iso-8859-1"?>
<!-- Generator: Adobe Illustrator 19.0.0, SVG Export Plug-In . SVG Version: 6.00 Build 0)  -->
<svg version="1.1" id="Layer_1" xmlns="http://www.w3.org/2000/svg" xmlns:xlink="http://www.w3.org/1999/xlink" x="0px" y="0px"
	 viewBox="0 0 512 512" style="enable-background:new 0 0 512 512;" xml:space="preserve">
<g>
	<g>
		<path style="fill: #FFFFFF;"
			  d="M446.856,410.72c-16.227-30.661-48.17-50.117-83.213-50.117c-36.808,0-69.713,21.239-85.109,53.886
			c-7.223-2.528-14.862-3.839-22.559-3.839c-34.086,0-62.415,25.116-67.456,57.814h-31.539v-71.338
			c10.902,5.514,23.008,8.448,35.501,8.448c43.475,0,78.845-35.369,78.845-78.844c0-14.595-3.896-28.51-11.347-40.762
			c19.461-18.737,30.835-45.938,30.835-74.639c0-45.688-28.437-84.977-67.793-96.081c0.805-4.535,1.211-9.135,1.211-13.767
			c0-43.465-35.361-78.825-78.825-78.825s-78.825,35.361-78.825,78.825c0,4.63,0.406,9.232,1.211,13.767
			C28.437,126.352,0,165.64,0,211.329c0,28.701,11.376,55.9,30.836,74.639c-7.451,12.251-11.347,26.165-11.347,40.762
			c0,43.475,35.369,78.844,78.844,78.844c13.366,0,26.288-3.359,37.766-9.644v72.533H93.932c-5.765,0-10.44,4.674-10.44,10.44
			c0,5.766,4.675,10.44,10.44,10.44H501.56c5.765,0,10.44-4.674,10.44-10.44C512,442.31,483.053,412.352,446.856,410.72z
			 M269.864,208.02c0.019,0.512,0.022,1.027,0.032,1.542c-0.334,3.142-2.998,5.597-6.228,5.597c-3.455,0-6.264-2.81-6.264-6.264
			c0-3.455,2.81-6.264,6.264-6.264C266.825,202.631,269.436,204.98,269.864,208.02z M70.015,373.455
			c-3.455,0-6.264-2.81-6.264-6.264c0-3.455,2.81-6.264,6.264-6.264c3.455,0,6.264,2.81,6.264,6.264
			C76.279,370.645,73.469,373.455,70.015,373.455z M197.102,199.766c-4.077-4.077-10.686-4.077-14.766,0l-25.357,25.357v-35.767
			c0-5.766-4.675-10.44-10.44-10.44c-5.765,0-10.44,4.674-10.44,10.44v118.155l-30.807-30.807c-4.077-4.077-10.686-4.077-14.766,0
			c-4.077,4.077-4.077,10.688,0,14.765l45.572,45.573v33.636c-10.519,9.057-23.82,14.015-37.764,14.015
			c-2.442,0-4.844-0.169-7.207-0.465c3.77-4.662,6.034-10.59,6.034-17.038c0-14.967-12.177-27.145-27.145-27.145
			c-9.841,0-18.475,5.265-23.235,13.125c-4.086-7.935-6.408-16.919-6.408-26.441c0-13.213,4.344-25.666,12.564-36.012
			c1.737-2.186,2.527-4.978,2.191-7.75c-0.335-2.772-1.768-5.294-3.978-7.003c-18.953-14.659-30.268-38.822-30.268-64.634
			c0-39.589,26.267-73.018,61.1-77.757c3.082-0.42,5.817-2.193,7.46-4.834c1.642-2.643,2.021-5.879,1.032-8.83
			c-1.997-5.957-3.01-12.157-3.01-18.426c0-31.951,25.994-57.945,57.945-57.945c31.951,0,57.945,25.994,57.945,57.945
			c0,6.269-1.013,12.469-3.01,18.426c-0.989,2.951-0.611,6.187,1.032,8.83c1.641,2.642,4.377,4.415,7.46,4.834
			c25.668,3.492,46.67,22.572,55.952,48.208c-0.371-0.015-0.741-0.028-1.116-0.028c-14.968,0-27.145,12.178-27.145,27.145
			c0,14.967,12.177,27.145,27.145,27.145c0.926,0,1.84-0.047,2.739-0.138c-4.72,16.056-14.002,30.207-26.74,40.062
			c-2.209,1.709-3.641,4.231-3.978,7.003c-0.335,2.772,0.454,5.564,2.19,7.75c8.221,10.346,12.565,22.799,12.565,36.012
			c0,31.961-26.002,57.963-57.964,57.963c-12.962,0-25.367-4.287-35.501-12.167V254.627c0.09-0.083,0.184-0.158,0.271-0.245
			l39.851-39.85C201.179,210.454,201.179,203.843,197.102,199.766z M209.76,468.464v-0.001
			c4.767-21.116,23.678-36.933,46.215-36.933c8.085,0,16.074,2.082,23.106,6.021c2.719,1.523,5.976,1.751,8.882,0.624
			c2.905-1.129,5.156-3.495,6.134-6.454c9.94-30.049,37.889-50.238,69.547-50.238c29.092,0,55.44,17.234,67.123,43.905
			c1.754,4.002,5.8,6.479,10.174,6.234c1.048-0.062,1.966-0.091,2.806-0.091c22.537,0,41.447,15.816,46.215,36.933H209.76z"/>
	</g>
</g>
<g>
	<g>
		<path style="fill: #FFFFFF;"
			  d="M70.015,172.727c-14.969,0-27.145,12.178-27.145,27.145c0,14.967,12.177,27.145,27.145,27.145
			c14.968,0,27.145-12.178,27.145-27.145C97.16,184.905,84.983,172.727,70.015,172.727z M70.015,206.137
			c-3.455,0-6.264-2.81-6.264-6.264c0-3.455,2.81-6.264,6.264-6.264c3.455,0,6.264,2.81,6.264,6.264
			C76.279,203.327,73.469,206.137,70.015,206.137z"/>
	</g>
</g>
<g>
	<g>
		<path style="fill: #FFFFFF;"
			  d="M129.834,83.205c-14.969,0-27.145,12.178-27.145,27.145c0,14.967,12.178,27.145,27.145,27.145
			c14.968,0,27.145-12.178,27.145-27.145C156.98,95.382,144.803,83.205,129.834,83.205z M129.834,116.614
			c-3.455,0-6.264-2.81-6.264-6.264c0-3.455,2.811-6.264,6.264-6.264c3.455,0,6.264,2.81,6.264,6.264
			C136.099,113.805,133.289,116.614,129.834,116.614z"/>
	</g>
</g>
<g>
	<g>
		<path style="fill: #FFFFFF;"
			  d="M196.995,266.252c-14.969,0-27.145,12.177-27.145,27.145c0,14.967,12.177,27.145,27.145,27.145
			c14.968,0,27.145-12.178,27.145-27.145C224.14,278.43,211.963,266.252,196.995,266.252z M196.995,299.661
			c-3.455,0-6.264-2.81-6.264-6.264s2.81-6.264,6.264-6.264c3.455,0,6.264,2.81,6.264,6.264S200.449,299.661,196.995,299.661z"/>
	</g>
</g>
<g>
	<g>
		<path style="fill: #FFFFFF;"
			  d="M221.082,175.784c-4.078-4.077-10.687-4.077-14.766,0l-0.097,0.097c-4.077,4.077-4.077,10.688,0,14.766
			c2.04,2.039,4.711,3.058,7.383,3.058s5.343-1.019,7.382-3.058l0.097-0.097C225.159,186.473,225.159,179.862,221.082,175.784z"/>
	</g>
</g>
<g>
	<g>
		<path style="fill: #FFFFFF;"
			  d="M81.407,252.818l-0.096-0.097c-4.078-4.077-10.687-4.077-14.766,0c-4.077,4.077-4.077,10.688,0,14.766l0.097,0.097
			c2.039,2.039,4.711,3.058,7.382,3.058c2.672,0,5.343-1.019,7.382-3.058C85.484,263.507,85.484,256.896,81.407,252.818z"/>
	</g>
</g>
<g>
	<g>
		<path style="fill: #FFFFFF;"
			  d="M65.971,468.463h-0.283c-5.765,0-10.44,4.674-10.44,10.44c0,5.766,4.675,10.44,10.44,10.44h0.283
			c5.765,0,10.44-4.674,10.44-10.44C76.412,473.137,71.736,468.463,65.971,468.463z"/>
	</g>
</g>
<g>
</g>
<g>
</g>
<g>
</g>
<g>
</g>
<g>
</g>
<g>
</g>
<g>
</g>
<g>
</g>
<g>
</g>
<g>
</g>
<g>
</g>
<g>
</g>
<g>
</g>
<g>
</g>
<g>
</g>
</svg>
